<?xml version="1.0" standalone="no"?>
<!DOCTYPE svg PUBLIC "-//W3C//DTD SVG 20010904//EN"
 "http://www.w3.org/TR/2001/REC-SVG-20010904/DTD/svg10.dtd">
<svg version="1.0" xmlns="http://www.w3.org/2000/svg"
 width="320.000000pt" height="320.000000pt" viewBox="0 0 320.000000 320.000000"
 preserveAspectRatio="xMidYMid meet">
<metadata>
Created by potrace 1.14, written by Peter Selinger 2001-2017
</metadata>
<g transform="translate(0.000000,320.000000) scale(0.100000,-0.100000)"
fill="#000000" stroke="none">
<path d="M1580 2923 c-8 -3 -47 -28 -87 -54 -73 -49 -163 -145 -207 -222 -34
-58 -93 -229 -104 -301 -11 -71 -7 -95 23 -121 13 -11 31 -51 44 -92 25 -85
25 -89 6 -73 -21 18 -19 2 10 -76 33 -87 33 -122 0 -130 -29 -7 -176 1 -263
15 -68 10 -87 8 -96 -15 -3 -8 -10 -14 -16 -14 -6 0 -9 4 -6 9 10 16 -5 41
-25 41 -21 0 -54 -44 -44 -60 3 -5 25 -10 48 -9 23 0 79 -1 125 -3 75 -3 102
2 70 15 -7 3 23 5 67 5 65 -1 72 -2 35 -7 l-45 -7 45 -6 c45 -6 63 -10 90 -21
48 -19 55 -14 61 43 3 30 3 103 1 163 -4 90 -2 107 11 107 9 0 17 -14 20 -37
9 -55 48 -126 77 -140 15 -8 68 -13 136 -13 133 0 131 -2 178 131 35 98 54
122 79 101 10 -9 13 -29 11 -72 -3 -50 1 -65 16 -80 11 -11 20 -24 20 -29 0
-5 6 -11 13 -14 8 -3 6 -11 -8 -26 -15 -15 -38 -23 -82 -27 -76 -8 -95 -18
-70 -36 16 -12 15 -15 -15 -33 -18 -10 -38 -25 -44 -33 -6 -8 -16 -12 -22 -8
-5 3 -12 0 -15 -6 -2 -7 -7 -10 -11 -7 -3 3 6 29 21 57 15 29 23 55 19 59 -9
9 -51 -42 -72 -87 -9 -19 -20 -43 -24 -52 -6 -10 -5 -18 1 -20 6 -2 1 -15 -10
-30 -19 -24 -19 -26 -4 -33 11 -4 13 -9 7 -13 -6 -4 -11 -16 -12 -27 -5 -60
-15 -105 -23 -105 -4 0 -13 -10 -20 -21 -8 -15 -8 -19 0 -15 7 5 10 -4 9 -28
-2 -21 -8 -36 -15 -36 -7 0 -13 -4 -13 -10 0 -5 7 -10 15 -10 9 0 18 -12 22
-30 3 -16 8 -30 12 -30 3 0 14 -18 25 -40 22 -45 63 -91 98 -106 12 -6 35 -17
49 -24 14 -6 37 -11 50 -10 42 4 60 0 54 -10 -4 -7 7 -9 29 -6 20 2 36 1 36
-4 0 -5 16 -7 35 -6 19 2 40 -2 45 -9 6 -7 22 -12 35 -10 14 1 22 -2 19 -6 -9
-16 25 -10 63 11 20 11 39 18 41 15 3 -2 6 -27 8 -54 3 -49 3 -49 -38 -66 -32
-12 -57 -15 -106 -9 -47 5 -63 4 -58 -5 9 -14 -9 -14 -34 -1 -10 5 -65 21
-122 35 -142 35 -189 62 -322 182 -39 35 -85 68 -104 74 -30 10 -36 9 -60 -14
-39 -35 -108 -72 -181 -97 -54 -18 -75 -32 -126 -86 -33 -35 -68 -64 -76 -64
-8 0 -30 -12 -48 -27 -18 -16 -53 -36 -77 -45 -91 -36 -170 -111 -218 -206
-23 -44 -27 -65 -25 -118 2 -63 1 -65 -42 -115 -63 -72 -82 -112 -119 -244
-12 -44 -28 -100 -35 -125 -12 -40 -35 -143 -35 -156 0 -2 353 -4 785 -4 l784
0 -9 28 -10 27 21 -28 c11 -15 25 -27 31 -27 6 0 3 10 -8 22 l-19 22 32 -23
c26 -18 44 -22 93 -20 50 2 60 5 55 18 -5 12 -2 12 13 -2 21 -19 32 -22 32 -6
0 5 -5 7 -12 3 -8 -5 -9 -2 -5 10 4 9 3 15 -2 11 -10 -6 -51 55 -51 76 0 8 6
3 13 -11 8 -14 19 -24 25 -22 7 1 20 -16 29 -38 l18 -40 91 0 92 0 -30 78
c-17 42 -52 127 -78 187 -27 61 -50 116 -52 124 -4 17 82 49 136 50 32 1 45
-5 71 -33 41 -43 89 -173 83 -223 -4 -31 0 -41 23 -60 15 -13 35 -46 44 -73 9
-28 21 -50 26 -50 5 0 9 1 9 3 -1 17 -96 293 -110 319 -23 41 -59 141 -54 149
3 5 17 9 32 9 15 0 41 4 59 9 30 9 32 8 47 -30 9 -22 16 -41 16 -43 0 -2 -18
-6 -40 -10 l-40 -6 16 -38 c9 -20 16 -45 16 -55 0 -9 3 -15 8 -12 5 3 12 -5
16 -17 4 -15 1 -25 -12 -35 -10 -7 -13 -13 -7 -13 7 0 15 5 18 11 5 6 12 4 20
-8 11 -15 17 -16 40 -5 15 7 28 11 29 10 8 -15 36 -80 36 -83 0 -2 -13 -6 -30
-10 -35 -8 -37 -19 -15 -93 l16 -52 75 0 c74 0 75 1 68 23 -7 26 -109 232
-177 360 -49 92 -56 117 -33 117 8 0 21 3 30 6 12 5 39 -41 120 -208 58 -117
111 -232 118 -256 7 -23 19 -42 25 -42 7 0 13 2 13 4 0 10 -108 244 -171 368
-38 76 -69 140 -69 143 0 3 15 5 33 5 29 0 38 -8 97 -92 36 -50 76 -109 88
-130 13 -22 26 -37 29 -35 5 5 -51 123 -69 144 -8 10 -7 13 3 13 9 0 9 3 -3
13 -14 11 -58 79 -58 89 0 3 6 5 14 5 8 0 29 -30 47 -66 18 -36 56 -106 84
-156 65 -112 118 -218 134 -267 12 -35 31 -52 31 -28 0 20 -57 135 -119 244
-107 185 -139 264 -112 280 17 11 70 -44 96 -100 15 -31 24 -58 21 -62 -8 -7
-10 -4 -34 51 -24 54 -48 64 -38 15 6 -29 37 -83 106 -183 15 -22 42 -68 59
-102 31 -63 51 -80 51 -44 0 17 -13 39 -93 155 -28 41 -33 56 -18 56 5 0 13
-12 19 -27 5 -16 28 -50 52 -78 47 -56 74 -111 85 -173 l7 -42 59 0 c46 0 59
3 59 15 0 14 -12 19 -32 16 -5 0 -8 6 -8 14 0 8 -4 23 -9 33 -5 9 -15 37 -22
62 -7 25 -16 50 -21 56 -4 6 -19 39 -32 75 -13 35 -30 78 -37 94 l-12 30 -7
-25 c-4 -16 -7 0 -8 45 -1 40 -10 96 -21 131 -11 34 -25 98 -30 143 -5 45 -13
87 -19 94 -5 6 -17 38 -26 71 -24 81 -67 167 -112 222 -140 168 -182 203 -239
204 -17 0 -60 16 -96 35 -35 19 -111 50 -168 69 -57 20 -105 37 -107 38 -4 5
17 90 36 143 52 143 70 234 58 289 -11 50 -8 139 5 147 6 5 5 25 -3 55 -8 30
-12 102 -11 187 2 143 -2 170 -45 265 -13 29 -24 55 -24 58 0 6 -82 142 -115
191 -35 53 -91 90 -200 133 -97 37 -110 40 -202 39 -54 0 -105 -3 -113 -6z
m135 -493 c-22 -23 -25 -30 -12 -30 12 0 17 -9 18 -27 l2 -28 4 28 c6 38 23
34 24 -5 1 -33 1 -33 10 7 12 48 26 65 35 42 3 -9 15 -17 25 -17 10 0 19 -6
19 -12 0 -10 3 -9 9 1 6 9 11 10 15 2 4 -6 16 -11 27 -11 11 0 18 -4 14 -9 -3
-5 -1 -12 5 -16 5 -3 10 -1 10 5 0 17 23 -9 37 -42 12 -26 11 -28 -12 -34 -14
-3 -25 -11 -25 -17 0 -6 -3 -8 -6 -4 -15 14 -94 -29 -94 -51 0 -14 -54 -25
-80 -17 -11 3 -20 12 -20 20 0 7 -11 15 -25 17 -28 6 -35 -8 -7 -15 9 -2 6 -2
-8 1 -38 7 -110 7 -155 0 -22 -4 -31 -4 -21 -1 14 4 16 7 6 13 -17 10 47 83
137 158 34 28 64 56 68 62 3 5 11 10 17 10 7 0 -1 -13 -17 -30z m38 -14 c4
-10 1 -13 -9 -9 -7 3 -14 9 -14 14 0 14 17 10 23 -5z m424 -68 c-3 -8 -6 -5
-6 6 -1 11 2 17 5 13 3 -3 4 -12 1 -19z m-2 -28 c3 -5 1 -10 -4 -10 -6 0 -11
5 -11 10 0 6 2 10 4 10 3 0 8 -4 11 -10z m-158 -6 c-3 -3 -12 -4 -19 -1 -8 3
-5 6 6 6 11 1 17 -2 13 -5z m178 -14 c-3 -5 -21 -9 -38 -9 l-32 2 35 7 c19 4
36 8 38 9 2 0 0 -3 -3 -9z m-842 -110 c16 0 -14 -20 -30 -20 -7 0 -13 7 -13
16 0 11 5 14 16 10 9 -3 21 -6 27 -6z m887 -22 c0 -25 -3 -29 -10 -18 -13 20
-13 50 0 50 6 0 10 -15 10 -32z m-743 16 c-3 -3 -12 -4 -19 -1 -8 3 -5 6 6 6
11 1 17 -2 13 -5z m-43 -19 c-4 -8 -10 -13 -14 -10 -5 3 -10 1 -12 -4 -1 -5
-18 -12 -35 -16 -37 -7 -45 8 -14 25 25 13 34 13 26 0 -3 -5 -1 -10 5 -10 6 0
13 7 16 15 4 8 12 15 20 15 8 0 11 -6 8 -15z m-119 -15 c-3 -5 -11 -10 -16
-10 -6 0 -7 5 -4 10 3 6 11 10 16 10 6 0 7 -4 4 -10z m405 -14 c0 -3 -4 -8
-10 -11 -5 -3 -10 -1 -10 4 0 6 5 11 10 11 6 0 10 -2 10 -4z m-310 -63 c0 -7
5 -13 10 -13 6 0 10 -9 10 -20 0 -14 5 -18 16 -13 14 5 16 0 12 -35 -2 -30 0
-42 10 -42 7 0 10 5 7 10 -3 6 4 10 17 10 18 0 20 -2 9 -9 -11 -7 -6 -11 20
-14 19 -2 0 -5 -42 -5 -61 -2 -79 1 -91 16 -17 19 -48 106 -48 134 0 20 16 24
23 6 3 -7 6 -5 6 6 1 18 2 18 21 1 11 -10 20 -24 20 -32z m800 14 c0 -7 -7
-22 -15 -33 -13 -17 -13 -16 -3 14 13 34 18 40 18 19z m20 -21 c0 -8 -9 -24
-20 -37 l-20 -24 17 37 c20 41 23 45 23 24z m-556 -71 c-7 -17 -43 -40 -51
-32 -2 3 4 8 15 11 11 4 23 13 26 21 3 8 8 15 10 15 3 0 3 -7 0 -15z m406 -32
c19 -2 42 -6 50 -9 13 -4 13 -6 0 -14 -10 -7 -11 -10 -2 -10 22 0 13 -18 -24
-46 -29 -23 -37 -25 -45 -13 -6 10 -9 10 -9 2 0 -21 -18 -15 -25 7 -4 12 -2
27 4 34 6 7 8 16 4 20 -4 3 -8 16 -10 27 -2 14 1 18 9 13 7 -4 28 -9 48 -11z
m-226 -208 c-10 -8 -27 -15 -38 -15 -15 0 -16 3 -6 15 7 8 24 15 38 15 25 0
25 -1 6 -15z m-109 -5 c3 -5 -1 -10 -9 -10 -9 0 -16 5 -16 10 0 6 4 10 9 10 6
0 13 -4 16 -10z m40 -40 c3 -5 -1 -10 -10 -10 -9 0 -13 5 -10 10 3 6 8 10 10
10 2 0 7 -4 10 -10z m-15 -40 c8 -5 11 -10 6 -10 -5 0 -1 -9 8 -19 13 -15 27
-18 54 -15 21 2 33 2 27 -1 -9 -4 -110 -23 -142 -27 -7 -1 -15 -8 -18 -16 -4
-11 -8 -12 -20 -2 -8 7 -15 9 -15 5 0 -5 -9 0 -19 9 -18 17 -20 17 -30 -1 -8
-15 -10 -10 -11 25 0 50 14 59 56 37 36 -19 54 -19 54 -1 0 12 13 23 30 25 3
0 12 -4 20 -9z m396 -395 c18 -44 18 -96 -1 -141 -20 -49 -34 -35 -31 34 2 31
4 76 4 100 1 23 4 42 8 42 3 0 12 -16 20 -35z m-86 -917 c0 -5 -7 -8 -15 -8
-8 0 -15 -4 -15 -9 0 -5 8 -7 18 -4 15 3 23 -7 41 -48 15 -38 18 -56 11 -63
-8 -8 -9 -6 -5 7 4 10 2 17 -4 17 -6 0 -11 8 -11 19 0 10 -7 24 -15 31 -8 7
-12 17 -8 23 4 6 0 8 -8 5 -8 -3 -23 0 -34 8 -16 12 -16 14 -3 14 9 0 20 5 24
12 5 8 0 9 -14 6 -12 -4 -22 -2 -22 2 0 5 10 10 23 12 21 3 36 -7 37 -24z
m-136 -70 c31 -73 32 -75 13 -56 -9 9 -17 19 -17 23 0 4 -7 13 -16 22 -8 9
-13 22 -10 29 3 9 -1 11 -12 8 -14 -5 -15 -4 -2 5 22 16 24 15 44 -31z m-91
-43 c15 -14 27 -31 27 -38 0 -7 -5 -4 -11 6 -6 9 -14 15 -19 12 -5 -3 -14 4
-20 15 -6 11 -14 19 -18 17 -4 -3 -16 -1 -27 4 -17 6 -15 8 10 8 19 1 40 -8
58 -24z m-17 -36 c4 -7 3 -9 -4 -5 -6 3 -13 2 -16 -3 -8 -13 20 -21 32 -9 6 6
12 6 17 -3 5 -8 4 -10 -3 -5 -7 4 -12 3 -12 -2 0 -5 10 -13 23 -19 l22 -10
-25 -8 c-16 -5 -25 -4 -28 4 -4 13 -15 24 -45 44 -9 7 -19 22 -22 34 -4 22 -3
22 25 8 16 -8 32 -20 36 -26z m159 -35 c18 -44 18 -41 0 -41 -14 0 -20 16 -16
46 2 7 -2 10 -8 6 -6 -3 -11 1 -11 9 0 28 19 17 35 -20z m-328 -46 c-3 -8 -6
-5 -6 6 -1 11 2 17 5 13 3 -3 4 -12 1 -19z m363 -28 c0 -5 -4 -10 -10 -10 -5
0 -10 5 -10 10 0 6 5 10 10 10 6 0 10 -4 10 -10z m168 -35 c-3 -3 -9 2 -12 12
-6 14 -5 15 5 6 7 -7 10 -15 7 -18z"/>
<path d="M1770 2251 c0 -12 5 -21 10 -21 6 0 10 6 10 14 0 8 -4 18 -10 21 -5
3 -10 -3 -10 -14z"/>
<path d="M2078 1943 c7 -3 16 -2 19 1 4 3 -2 6 -13 5 -11 0 -14 -3 -6 -6z"/>
<path d="M1810 215 c7 -9 15 -13 17 -11 7 7 -7 26 -19 26 -6 0 -6 -6 2 -15z"/>
<path d="M1867 159 c7 -7 15 -10 18 -7 3 3 -2 9 -12 12 -14 6 -15 5 -6 -5z"/>
<path d="M0 1904 l0 -97 48 7 c26 3 92 6 147 7 55 1 104 3 108 6 12 7 -33 53
-53 53 -9 0 -20 -4 -25 -9 -6 -6 -29 -6 -55 -1 -35 6 -53 4 -81 -10 -37 -17
-37 -17 -49 5 -15 29 -8 41 36 60 20 8 32 19 29 27 -5 12 -79 48 -98 48 -4 0
-7 -43 -7 -96z"/>
<path d="M340 1988 c-73 -20 -79 -48 -17 -79 48 -25 60 -38 47 -54 -11 -13 6
-35 26 -35 28 0 33 25 9 48 -28 27 -23 59 11 73 23 8 32 33 17 42 -21 12 -62
14 -93 5z"/>
<path d="M715 1989 c-22 -4 -60 -8 -85 -9 -25 0 -51 -4 -59 -9 -22 -14 21 -50
59 -49 19 1 36 -6 44 -17 10 -14 16 -15 34 -6 11 6 31 11 43 11 21 0 69 42 69
60 0 12 -34 30 -52 29 -7 -1 -31 -5 -53 -10z"/>
<path d="M577 1874 c-3 -3 -22 -6 -42 -6 -23 0 -38 -6 -44 -17 -9 -16 1 -17
112 -19 78 -1 115 2 102 8 -11 5 -30 9 -42 9 -12 1 -23 5 -25 9 -4 11 -53 24
-61 16z"/>
<path d="M1500 1619 c0 -5 5 -7 10 -4 6 3 10 8 10 11 0 2 -4 4 -10 4 -5 0 -10
-5 -10 -11z"/>
<path d="M1847 1129 c7 -7 15 -10 18 -7 3 3 -2 9 -12 12 -14 6 -15 5 -6 -5z"/>
<path d="M2238 343 c-22 -6 -22 -11 -2 -59 47 -113 55 -125 77 -122 29 4 33
38 12 94 -17 44 -51 95 -63 93 -4 -1 -15 -3 -24 -6z"/>
<path d="M2426 305 c-3 -8 -1 -15 4 -15 6 0 10 7 10 15 0 8 -2 15 -4 15 -2 0
-6 -7 -10 -15z"/>
</g>
</svg>
